<?xml version="1.0" standalone="no"?>
<!DOCTYPE svg PUBLIC "-//W3C//DTD SVG 20010904//EN"
 "http://www.w3.org/TR/2001/REC-SVG-20010904/DTD/svg10.dtd">
<svg version="1.0" xmlns="http://www.w3.org/2000/svg"
 width="347.000000pt" height="347.000000pt" viewBox="0 0 347.000000 347.000000"
 preserveAspectRatio="xMidYMid meet">
<metadata>
Created by potrace 1.11, written by Peter Selinger 2001-2013
</metadata>
<g transform="translate(0.000000,347.000000) scale(0.100000,-0.100000)"
fill="#000000" stroke="none">
<path d="M775 3414 c-68 -35 -135 -102 -179 -182 -30 -55 -38 -80 -43 -142 -4
-65 -2 -84 21 -144 36 -94 83 -155 174 -222 42 -32 79 -59 81 -60 2 -2 -10
-32 -27 -66 -17 -35 -39 -88 -48 -120 -10 -35 -23 -58 -33 -61 -10 -2 -36 -32
-59 -67 -36 -53 -42 -70 -42 -113 0 -47 3 -53 47 -94 l46 -43 -16 -33 c-21
-43 -60 -179 -102 -362 -19 -82 -42 -172 -50 -199 -19 -61 -23 -576 -4 -576 6
0 29 16 52 35 22 19 44 35 49 35 4 0 8 -24 8 -54 0 -59 62 -252 105 -328 32
-56 118 -143 183 -184 29 -19 55 -34 57 -34 3 0 5 9 5 20 0 54 82 170 120 170
8 -1 41 -44 75 -102 64 -108 169 -224 280 -309 83 -64 228 -139 257 -132 55
12 179 92 312 202 72 61 206 219 206 245 0 6 10 23 23 38 12 14 27 34 33 44
10 17 12 17 41 -4 39 -28 93 -108 93 -139 0 -33 27 -30 81 9 146 107 244 284
256 463 7 111 6 109 50 85 21 -11 49 -28 62 -37 l24 -17 -7 37 c-4 20 -7 98
-7 173 1 174 -14 314 -45 432 -13 52 -24 104 -24 115 0 11 -9 50 -20 86 -54
180 -81 291 -78 317 2 18 12 33 27 41 30 15 48 47 51 93 6 80 2 91 -58 150
-46 46 -66 74 -90 136 -51 125 -43 151 66 226 92 64 150 146 171 246 14 66 14
149 1 157 -5 3 -10 18 -10 33 0 36 -42 97 -110 161 -90 84 -193 121 -245 87
-26 -17 -34 -59 -15 -71 6 -4 33 -33 60 -66 44 -53 50 -66 50 -106 0 -79 -63
-161 -130 -169 -14 -2 -58 6 -99 17 -44 12 -86 17 -103 13 -20 -4 -35 -1 -46
9 -27 24 -267 126 -330 140 -54 12 -57 14 -62 47 l-5 35 -110 3 c-141 4 -155
0 -155 -39 0 -16 -6 -31 -12 -33 -7 -2 -55 -13 -106 -25 -94 -21 -179 -56
-274 -112 -42 -25 -59 -30 -90 -25 -25 4 -54 0 -88 -13 -46 -17 -55 -18 -103
-5 -61 16 -101 54 -111 107 -11 59 8 106 74 179 33 36 60 73 60 81 0 9 -19 22
-47 31 -59 20 -58 20 -118 -10z"/>
</g>
</svg>
